<svg xmlns="http://www.w3.org/2000/svg" viewBox="0 0 400 300" preserveAspectRatio="xMidYMid slice"><rect width="400" height="300" fill="#efeae1"/><rect x="0" y="0" width="400" height="210" fill="#efeae1"/><rect x="0" y="210" width="400" height="90" fill="#b8a88e"/><path d="M250 150 V96 a40 40 0 0 1 80 0 V150" fill="none" stroke="#4d403a" stroke-width="3" opacity="0.8"/><rect x="40" y="48" width="110" height="104" rx="4" fill="#ffffff" opacity="0.55" stroke="#4d403a" stroke-width="2"/><line x1="95" y1="48" x2="95" y2="152" stroke="#4d403a" stroke-width="1.5" opacity="0.7"/><line x1="40" y1="100" x2="150" y2="100" stroke="#4d403a" stroke-width="1.5" opacity="0.7"/><ellipse cx="200" cy="250" rx="150" ry="26" fill="#4d403a" opacity="0.18"/><rect x="96" y="150" width="208" height="86" rx="16" fill="#8b8275"/><rect x="108" y="158" width="86" height="40" rx="10" fill="#a59a89"/><rect x="206" y="158" width="86" height="40" rx="10" fill="#a59a89"/><rect x="84" y="170" width="22" height="66" rx="10" fill="#8b8275"/><rect x="294" y="170" width="22" height="66" rx="10" fill="#8b8275"/></svg>