<svg xmlns="http://www.w3.org/2000/svg" viewBox="0 0 400 300" preserveAspectRatio="xMidYMid slice"><rect width="400" height="300" fill="#efe9dc"/><rect x="0" y="0" width="400" height="210" fill="#efe9dc"/><rect x="0" y="210" width="400" height="90" fill="#b58a5c"/><path d="M292 196 h28 l-4 34 h-20 z" fill="#5c7a49" opacity="0.85"/><circle cx="296" cy="180" r="15" fill="#6f8f5e"/><circle cx="316" cy="184" r="13" fill="#557a45"/><circle cx="306" cy="166" r="14" fill="#7ea06a"/><rect x="40" y="48" width="110" height="104" rx="4" fill="#ffffff" opacity="0.55" stroke="#5c7a49" stroke-width="2"/><line x1="95" y1="48" x2="95" y2="152" stroke="#5c7a49" stroke-width="1.5" opacity="0.7"/><line x1="40" y1="100" x2="150" y2="100" stroke="#5c7a49" stroke-width="1.5" opacity="0.7"/><ellipse cx="200" cy="250" rx="150" ry="26" fill="#5c7a49" opacity="0.18"/><rect x="96" y="150" width="208" height="86" rx="16" fill="#9aa17e"/><rect x="108" y="158" width="86" height="40" rx="10" fill="#7e8b5f"/><rect x="206" y="158" width="86" height="40" rx="10" fill="#7e8b5f"/><rect x="84" y="170" width="22" height="66" rx="10" fill="#9aa17e"/><rect x="294" y="170" width="22" height="66" rx="10" fill="#9aa17e"/></svg>