<svg xmlns="http://www.w3.org/2000/svg" viewBox="0 0 400 300" preserveAspectRatio="xMidYMid slice"><rect width="400" height="300" fill="#ffffff"/><rect x="0" y="0" width="400" height="210" fill="#ffffff"/><rect x="0" y="210" width="400" height="90" fill="#e8d7bd"/><line x1="305" y1="0" x2="305" y2="64" stroke="#bcd0d6" stroke-width="3"/><path d="M288 64 h34 l-6 16 h-22 z" fill="#bcd0d6"/><rect x="40" y="48" width="110" height="104" rx="4" fill="#ffffff" opacity="0.55" stroke="#bcd0d6" stroke-width="2"/><line x1="95" y1="48" x2="95" y2="152" stroke="#bcd0d6" stroke-width="1.5" opacity="0.7"/><line x1="40" y1="100" x2="150" y2="100" stroke="#bcd0d6" stroke-width="1.5" opacity="0.7"/><ellipse cx="200" cy="250" rx="150" ry="26" fill="#bcd0d6" opacity="0.18"/><rect x="96" y="150" width="208" height="86" rx="16" fill="#eef3f5"/><rect x="108" y="158" width="86" height="40" rx="10" fill="#cdd9de"/><rect x="206" y="158" width="86" height="40" rx="10" fill="#cdd9de"/><rect x="84" y="170" width="22" height="66" rx="10" fill="#eef3f5"/><rect x="294" y="170" width="22" height="66" rx="10" fill="#eef3f5"/></svg>