<svg xmlns="http://www.w3.org/2000/svg" viewBox="0 0 400 300" preserveAspectRatio="xMidYMid slice"><rect width="400" height="300" fill="#e9ddc6"/><rect width="400" height="300" fill="#e9ddc6"/><rect x="0" y="0" width="70" height="300" fill="#b88f5e" opacity="0.9"/><line x1="80" y1="0" x2="400" y2="0" stroke="#cdbb9a" stroke-width="2"/><line x1="80" y1="22" x2="400" y2="22" stroke="#cdbb9a" stroke-width="2"/><line x1="80" y1="44" x2="400" y2="44" stroke="#cdbb9a" stroke-width="2"/><line x1="80" y1="66" x2="400" y2="66" stroke="#cdbb9a" stroke-width="2"/><line x1="80" y1="88" x2="400" y2="88" stroke="#cdbb9a" stroke-width="2"/><line x1="80" y1="110" x2="400" y2="110" stroke="#cdbb9a" stroke-width="2"/><line x1="80" y1="132" x2="400" y2="132" stroke="#cdbb9a" stroke-width="2"/><line x1="80" y1="154" x2="400" y2="154" stroke="#cdbb9a" stroke-width="2"/><line x1="80" y1="176" x2="400" y2="176" stroke="#cdbb9a" stroke-width="2"/><line x1="80" y1="198" x2="400" y2="198" stroke="#cdbb9a" stroke-width="2"/><line x1="80" y1="220" x2="400" y2="220" stroke="#cdbb9a" stroke-width="2"/><line x1="80" y1="242" x2="400" y2="242" stroke="#cdbb9a" stroke-width="2"/><line x1="80" y1="264" x2="400" y2="264" stroke="#cdbb9a" stroke-width="2"/><line x1="80" y1="286" x2="400" y2="286" stroke="#cdbb9a" stroke-width="2"/><line x1="90" y1="0" x2="90" y2="300" stroke="#d8c9ad" stroke-width="2"/><line x1="116" y1="0" x2="116" y2="300" stroke="#d8c9ad" stroke-width="2"/><line x1="142" y1="0" x2="142" y2="300" stroke="#d8c9ad" stroke-width="2"/><line x1="168" y1="0" x2="168" y2="300" stroke="#d8c9ad" stroke-width="2"/><line x1="194" y1="0" x2="194" y2="300" stroke="#d8c9ad" stroke-width="2"/><line x1="220" y1="0" x2="220" y2="300" stroke="#d8c9ad" stroke-width="2"/><line x1="246" y1="0" x2="246" y2="300" stroke="#d8c9ad" stroke-width="2"/><line x1="272" y1="0" x2="272" y2="300" stroke="#d8c9ad" stroke-width="2"/><line x1="298" y1="0" x2="298" y2="300" stroke="#d8c9ad" stroke-width="2"/><line x1="324" y1="0" x2="324" y2="300" stroke="#d8c9ad" stroke-width="2"/><line x1="350" y1="0" x2="350" y2="300" stroke="#d8c9ad" stroke-width="2"/><line x1="376" y1="0" x2="376" y2="300" stroke="#d8c9ad" stroke-width="2"/></svg>